<?xml version="1.0" encoding="UTF-8"?>
<svg width="195px" height="82px" viewBox="0 0 195 82" version="1.1" xmlns="http://www.w3.org/2000/svg" xmlns:xlink="http://www.w3.org/1999/xlink">
    <!-- Generator: Sketch 50.2 (55047) - http://www.bohemiancoding.com/sketch -->
    <title>Group Copy 2</title>
    <desc>Created with Sketch.</desc>
    <defs></defs>
    <g id="Page-1" stroke="none" stroke-width="1" fill="none" fill-rule="evenodd">
        <g id="Artboard" transform="translate(-1463.000000, -330.000000)" fill="#FFFFFF">
            <g id="Group-Copy-2" transform="translate(1463.000000, 330.000000)">
                <path d="M193.356667,43.12 C193.283333,43.12 193.226667,43.0900003 193.186667,43.03 L190.796667,39.54 C190.556665,39.6933341 190.395,39.8583325 190.311667,40.035 C190.228333,40.2116676 190.186667,40.4466652 190.186667,40.74 L190.186667,42.24 L190.966667,42.24 C191.006667,42.24 191.04,42.2533332 191.066667,42.28 C191.093333,42.3066668 191.106667,42.3399998 191.106667,42.38 L191.106667,42.86 C191.106667,42.9000002 191.093333,42.9333332 191.066667,42.96 C191.04,42.9866668 191.006667,43 190.966667,43 L189.766667,43 C189.666666,43 189.581667,42.9650004 189.511667,42.895 C189.441666,42.8249997 189.406667,42.7400005 189.406667,42.64 L189.406667,40.8 C189.406667,40.4066647 189.458333,40.0750014 189.561667,39.805 C189.665,39.5349987 189.866665,39.2900011 190.166667,39.07 L190.376667,38.92 L189.526667,37.68 C189.5,37.6466665 189.486667,37.6066669 189.486667,37.56 C189.486667,37.4866663 189.52,37.4266669 189.586667,37.38 L189.886667,37.19 C189.92,37.1633332 189.96,37.15 190.006667,37.15 C190.08,37.15 190.136666,37.1799997 190.176667,37.24 L192.116667,40.08 C192.470002,40.0466665 192.753332,39.9400009 192.966667,39.76 C193.180001,39.5799991 193.286667,39.3366682 193.286667,39.03 L193.286667,37.97 L192.506667,37.97 C192.466666,37.97 192.433333,37.9566668 192.406667,37.93 C192.38,37.9033332 192.366667,37.8700002 192.366667,37.83 L192.366667,37.35 C192.366667,37.3099998 192.38,37.2766668 192.406667,37.25 C192.433333,37.2233332 192.466666,37.21 192.506667,37.21 L193.706667,37.21 C193.806667,37.21 193.891666,37.2449997 193.961667,37.315 C194.031667,37.3850004 194.066667,37.4699995 194.066667,37.57 L194.066667,38.98 C194.066667,39.4133355 193.933335,39.7883318 193.666667,40.105 C193.399999,40.4216683 193.026669,40.6199996 192.546667,40.7 L193.836667,42.59 C193.863333,42.6233335 193.876667,42.6633331 193.876667,42.71 C193.876667,42.7833337 193.843334,42.8433331 193.776667,42.89 L193.476667,43.08 C193.443333,43.1066668 193.403334,43.12 193.356667,43.12 Z M182.593333,43 C182.553333,43 182.52,42.9866668 182.493333,42.96 C182.466666,42.9333332 182.453333,42.9000002 182.453333,42.86 L182.453333,37.97 L181.953333,37.97 C181.913333,37.97 181.88,37.9566668 181.853333,37.93 C181.826666,37.9033332 181.813333,37.8700002 181.813333,37.83 L181.813333,37.35 C181.813333,37.3099998 181.826666,37.2766668 181.853333,37.25 C181.88,37.2233332 181.913333,37.21 181.953333,37.21 L182.943333,37.21 C183.016667,37.21 183.076666,37.2333331 183.123333,37.28 C183.17,37.3266669 183.193333,37.3866663 183.193333,37.46 L183.193333,37.91 C183.380001,37.6633321 183.611665,37.4683341 183.888333,37.325 C184.165001,37.181666 184.473332,37.11 184.813333,37.11 C185.180002,37.11 185.504999,37.1899992 185.788333,37.35 C186.071668,37.5100008 186.289999,37.7249987 186.443333,37.995 C186.596667,38.2650014 186.673333,38.5533318 186.673333,38.86 L186.673333,41.77 C186.666667,42.1166684 186.541668,42.4083322 186.298333,42.645 C186.054999,42.8816679 185.763335,43 185.423333,43 L184.433333,43 C184.393333,43 184.36,42.9866668 184.333333,42.96 C184.306666,42.9333332 184.293333,42.9000002 184.293333,42.86 L184.293333,42.38 C184.293333,42.3399998 184.306666,42.3066668 184.333333,42.28 C184.36,42.2533332 184.393333,42.24 184.433333,42.24 L185.413333,42.24 C185.546667,42.24 185.659999,42.1933338 185.753333,42.1 C185.846667,42.0066662 185.893333,41.893334 185.893333,41.76 L185.893333,39.05 C185.893333,38.6899982 185.781668,38.3983345 185.558333,38.175 C185.334999,37.9516656 185.043335,37.84 184.683333,37.84 C184.256664,37.84 183.908335,37.9749987 183.638333,38.245 C183.368332,38.5150014 183.233333,38.8633312 183.233333,39.29 L183.233333,42.86 C183.233333,42.9000002 183.22,42.9333332 183.193333,42.96 C183.166666,42.9866668 183.133333,43 183.093333,43 L182.593333,43 Z M177.1,43 C177.06,43 177.026667,42.9866668 177,42.96 C176.973333,42.9333332 176.96,42.9000002 176.96,42.86 L176.96,42.38 C176.96,42.3399998 176.973333,42.3066668 177,42.28 C177.026667,42.2533332 177.06,42.24 177.1,42.24 L177.93,42.24 C178.076667,42.24 178.199999,42.1900005 178.3,42.09 C178.4,41.9899995 178.45,41.8666674 178.45,41.72 L178.45,37.97 L177.4,37.97 C177.36,37.97 177.326667,37.9566668 177.3,37.93 C177.273333,37.9033332 177.26,37.8700002 177.26,37.83 L177.26,37.35 C177.26,37.3099998 177.273333,37.2766668 177.3,37.25 C177.326667,37.2233332 177.36,37.21 177.4,37.21 L178.87,37.21 C178.97,37.21 179.055,37.2449997 179.125,37.315 C179.195,37.3850004 179.23,37.4699995 179.23,37.57 L179.23,41.72 C179.23,41.9466678 179.171667,42.1583324 179.055,42.355 C178.938333,42.5516677 178.780001,42.7083328 178.58,42.825 C178.379999,42.9416673 178.170001,43 177.95,43 L177.1,43 Z M173.736667,43 C173.696666,43 173.663333,42.9866668 173.636667,42.96 C173.61,42.9333332 173.596667,42.9000002 173.596667,42.86 L173.596667,37.97 L172.766667,37.97 C172.726666,37.97 172.693333,37.9566668 172.666667,37.93 C172.64,37.9033332 172.626667,37.8700002 172.626667,37.83 L172.626667,37.35 C172.626667,37.3099998 172.64,37.2766668 172.666667,37.25 C172.693333,37.2233332 172.726666,37.21 172.766667,37.21 L174.016667,37.21 C174.116667,37.21 174.201666,37.2449997 174.271667,37.315 C174.341667,37.3850004 174.376667,37.4699995 174.376667,37.57 L174.376667,42.86 C174.376667,42.9000002 174.363333,42.9333332 174.336667,42.96 C174.31,42.9866668 174.276667,43 174.236667,43 L173.736667,43 Z M165.063333,43 C165.023333,43 164.99,42.9866668 164.963333,42.96 C164.936666,42.9333332 164.923333,42.9000002 164.923333,42.86 L164.923333,42.38 C164.923333,42.3399998 164.936666,42.3066668 164.963333,42.28 C164.99,42.2533332 165.023333,42.24 165.063333,42.24 L165.873333,42.24 L165.873333,37.97 L165.063333,37.97 C165.023333,37.97 164.99,37.9566668 164.963333,37.93 C164.936666,37.9033332 164.923333,37.8700002 164.923333,37.83 L164.923333,37.35 C164.923333,37.3099998 164.936666,37.2766668 164.963333,37.25 C164.99,37.2233332 165.023333,37.21 165.063333,37.21 L169.583333,37.21 C169.683334,37.21 169.768333,37.2449997 169.838333,37.315 C169.908333,37.3850004 169.943333,37.4699995 169.943333,37.57 L169.943333,42.86 C169.943333,42.9000002 169.93,42.9333332 169.903333,42.96 C169.876666,42.9866668 169.843333,43 169.803333,43 L169.303333,43 C169.263333,43 169.23,42.9866668 169.203333,42.96 C169.176666,42.9333332 169.163333,42.9000002 169.163333,42.86 L169.163333,37.97 L166.653333,37.97 L166.653333,42.64 C166.653333,42.7400005 166.618333,42.8249997 166.548333,42.895 C166.478333,42.9650004 166.393334,43 166.293333,43 L165.063333,43 Z M161.01,43.97 C160.943333,43.97 160.895,43.9466669 160.865,43.9 C160.835,43.8533331 160.826666,43.7933337 160.84,43.72 L161.31,42.07 C161.336667,42.003333 161.383333,41.97 161.45,41.97 L162.13,41.97 C162.203333,41.97 162.256666,41.9949998 162.29,42.045 C162.323333,42.0950003 162.326667,42.1499997 162.3,42.21 L161.38,43.97 L161.01,43.97 Z M153.423333,43 C153.383333,43 153.35,42.9866668 153.323333,42.96 C153.296666,42.9333332 153.283333,42.9000002 153.283333,42.86 L153.283333,37.97 L150.313333,37.97 C150.273333,37.97 150.24,37.9566668 150.213333,37.93 C150.186666,37.9033332 150.173333,37.8700002 150.173333,37.83 L150.173333,37.35 C150.173333,37.3099998 150.186666,37.2766668 150.213333,37.25 C150.24,37.2233332 150.273333,37.21 150.313333,37.21 L153.703333,37.21 C153.803334,37.21 153.888333,37.2449997 153.958333,37.315 C154.028333,37.3850004 154.063333,37.4699995 154.063333,37.57 L154.063333,42.86 C154.063333,42.9000002 154.05,42.9333332 154.023333,42.96 C153.996666,42.9866668 153.963333,43 153.923333,43 L153.423333,43 Z M146.85,43 C146.809999,43 146.776666,42.9866668 146.75,42.96 C146.723333,42.9333332 146.71,42.9000002 146.71,42.86 L146.71,37.97 L145.88,37.97 C145.839999,37.97 145.806666,37.9566668 145.78,37.93 C145.753333,37.9033332 145.74,37.8700002 145.74,37.83 L145.74,37.35 C145.74,37.3099998 145.753333,37.2766668 145.78,37.25 C145.806666,37.2233332 145.839999,37.21 145.88,37.21 L147.13,37.21 C147.23,37.21 147.314999,37.2449997 147.385,37.315 C147.455,37.3850004 147.49,37.4699995 147.49,37.57 L147.49,42.86 C147.49,42.9000002 147.476666,42.9333332 147.45,42.96 C147.423333,42.9866668 147.39,43 147.35,43 L146.85,43 Z M138.936666,43 C138.896666,43 138.863333,42.9866668 138.836666,42.96 C138.809999,42.9333332 138.796666,42.9000002 138.796666,42.86 L138.796666,37.97 L138.266666,37.97 C138.226666,37.97 138.193333,37.9566668 138.166666,37.93 C138.139999,37.9033332 138.126666,37.8700002 138.126666,37.83 L138.126666,37.35 C138.126666,37.3099998 138.139999,37.2766668 138.166666,37.25 C138.193333,37.2233332 138.226666,37.21 138.266666,37.21 L143.316666,37.21 C143.356666,37.21 143.389999,37.2233332 143.416666,37.25 C143.443333,37.2766668 143.456666,37.3099998 143.456666,37.35 L143.456666,37.83 C143.456666,37.8700002 143.443333,37.9033332 143.416666,37.93 C143.389999,37.9566668 143.356666,37.97 143.316666,37.97 L142.786666,37.97 L142.786666,42.86 C142.786666,42.9000002 142.773333,42.9333332 142.746666,42.96 C142.719999,42.9866668 142.686666,43 142.646666,43 L142.146666,43 C142.106666,43 142.073333,42.9866668 142.046666,42.96 C142.019999,42.9333332 142.006666,42.9000002 142.006666,42.86 L142.006666,37.97 L139.576666,37.97 L139.576666,42.86 C139.576666,42.9000002 139.563333,42.9333332 139.536666,42.96 C139.509999,42.9866668 139.476666,43 139.436666,43 L138.936666,43 Z M134.863333,43 C134.823333,43 134.79,42.9866668 134.763333,42.96 C134.736666,42.9333332 134.723333,42.9000002 134.723333,42.86 L134.723333,37.97 L133.893333,37.97 C133.853333,37.97 133.82,37.9566668 133.793333,37.93 C133.766666,37.9033332 133.753333,37.8700002 133.753333,37.83 L133.753333,37.35 C133.753333,37.3099998 133.766666,37.2766668 133.793333,37.25 C133.82,37.2233332 133.853333,37.21 133.893333,37.21 L135.143333,37.21 C135.243333,37.21 135.328333,37.2449997 135.398333,37.315 C135.468333,37.3850004 135.503333,37.4699995 135.503333,37.57 L135.503333,42.86 C135.503333,42.9000002 135.49,42.9333332 135.463333,42.96 C135.436666,42.9866668 135.403333,43 135.363333,43 L134.863333,43 Z M126.19,43 C126.149999,43 126.116666,42.9866668 126.09,42.96 C126.063333,42.9333332 126.05,42.9000002 126.05,42.86 L126.05,42.38 C126.05,42.3399998 126.063333,42.3066668 126.09,42.28 C126.116666,42.2533332 126.149999,42.24 126.19,42.24 L127,42.24 L127,37.97 L126.19,37.97 C126.149999,37.97 126.116666,37.9566668 126.09,37.93 C126.063333,37.9033332 126.05,37.8700002 126.05,37.83 L126.05,37.35 C126.05,37.3099998 126.063333,37.2766668 126.09,37.25 C126.116666,37.2233332 126.149999,37.21 126.19,37.21 L130.71,37.21 C130.81,37.21 130.894999,37.2449997 130.965,37.315 C131.035,37.3850004 131.07,37.4699995 131.07,37.57 L131.07,42.86 C131.07,42.9000002 131.056666,42.9333332 131.03,42.96 C131.003333,42.9866668 130.97,43 130.93,43 L130.43,43 C130.389999,43 130.356666,42.9866668 130.33,42.96 C130.303333,42.9333332 130.29,42.9000002 130.29,42.86 L130.29,37.97 L127.78,37.97 L127.78,42.64 C127.78,42.7400005 127.745,42.8249997 127.675,42.895 C127.604999,42.9650004 127.52,43 127.42,43 L126.19,43 Z M118.643333,43 C118.603333,43 118.57,42.9866668 118.543333,42.96 C118.516666,42.9333332 118.503333,42.9000002 118.503333,42.86 L118.503333,37.97 L117.673333,37.97 C117.633333,37.97 117.6,37.9566668 117.573333,37.93 C117.546666,37.9033332 117.533333,37.8700002 117.533333,37.83 L117.533333,37.35 C117.533333,37.3099998 117.546666,37.2766668 117.573333,37.25 C117.6,37.2233332 117.633333,37.21 117.673333,37.21 L118.923333,37.21 C119.023333,37.21 119.108332,37.2449997 119.178333,37.315 C119.248333,37.3850004 119.283333,37.4699995 119.283333,37.57 L119.283333,42.86 C119.283333,42.9000002 119.27,42.9333332 119.243333,42.96 C119.216666,42.9866668 119.183333,43 119.143333,43 L118.643333,43 Z M110.769999,43 C110.423331,43 110.128334,42.8783346 109.884999,42.635 C109.641665,42.3916655 109.519999,42.0966684 109.519999,41.75 L109.519999,37.57 C109.519999,37.4699995 109.554999,37.3850004 109.624999,37.315 C109.695,37.2449997 109.779999,37.21 109.879999,37.21 L110.779999,37.21 C110.82,37.21 110.853333,37.2233332 110.879999,37.25 C110.906666,37.2766668 110.919999,37.3099998 110.919999,37.35 L110.919999,37.81 C110.919999,37.8500002 110.906666,37.8833332 110.879999,37.91 C110.853333,37.9366668 110.82,37.95 110.779999,37.95 L110.249999,37.95 L110.249999,41.76 C110.249999,41.893334 110.296666,42.0066662 110.389999,42.1 C110.483333,42.1933338 110.596665,42.24 110.729999,42.24 L111.839999,42.24 L111.839999,37.35 C111.839999,37.3099998 111.853333,37.2766668 111.879999,37.25 C111.906666,37.2233332 111.939999,37.21 111.979999,37.21 L112.429999,37.21 C112.47,37.21 112.503333,37.2233332 112.529999,37.25 C112.556666,37.2766668 112.569999,37.3099998 112.569999,37.35 L112.569999,42.24 L113.679999,42.24 C113.813333,42.24 113.928332,42.1933338 114.024999,42.1 C114.121667,42.0066662 114.169999,41.893334 114.169999,41.76 L114.169999,37.95 L113.639999,37.95 C113.599999,37.95 113.566666,37.9366668 113.539999,37.91 C113.513333,37.8833332 113.499999,37.8500002 113.499999,37.81 L113.499999,37.35 C113.499999,37.3099998 113.513333,37.2766668 113.539999,37.25 C113.566666,37.2233332 113.599999,37.21 113.639999,37.21 L114.539999,37.21 C114.64,37.21 114.724999,37.2449997 114.794999,37.315 C114.865,37.3850004 114.899999,37.4699995 114.899999,37.57 L114.899999,41.75 C114.899999,42.0966684 114.776667,42.3916655 114.529999,42.635 C114.283332,42.8783346 113.986668,43 113.639999,43 L110.769999,43 Z M105.296666,43 C105.256666,43 105.223333,42.9866668 105.196666,42.96 C105.169999,42.9333332 105.156666,42.9000002 105.156666,42.86 L105.156666,37.97 L102.646666,37.97 C102.606666,37.97 102.573333,37.9566668 102.546666,37.93 C102.519999,37.9033332 102.506666,37.8700002 102.506666,37.83 L102.506666,37.35 C102.506666,37.3099998 102.519999,37.2766668 102.546666,37.25 C102.573333,37.2233332 102.606666,37.21 102.646666,37.21 L106.846666,37.21 C106.886666,37.21 106.919999,37.2233332 106.946666,37.25 C106.973333,37.2766668 106.986666,37.3099998 106.986666,37.35 L106.986666,37.83 C106.986666,37.8700002 106.973333,37.9033332 106.946666,37.93 C106.919999,37.9566668 106.886666,37.97 106.846666,37.97 L105.936666,37.97 L105.936666,42.86 C105.936666,42.9000002 105.923333,42.9333332 105.896666,42.96 C105.869999,42.9866668 105.836666,43 105.796666,43 L105.296666,43 Z M99.2333327,40.49 C99.1933325,40.49 99.1599995,40.4766668 99.1333327,40.45 C99.1066659,40.4233332 99.0933327,40.3900002 99.0933327,40.35 L99.0933327,37.97 L98.2633327,37.97 C98.2233325,37.97 98.1899995,37.9566668 98.1633327,37.93 C98.1366659,37.9033332 98.1233327,37.8700002 98.1233327,37.83 L98.1233327,37.35 C98.1233327,37.3099998 98.1366659,37.2766668 98.1633327,37.25 C98.1899995,37.2233332 98.2233325,37.21 98.2633327,37.21 L99.5133327,37.21 C99.6133332,37.21 99.6983323,37.2449997 99.7683327,37.315 C99.838333,37.3850004 99.8733327,37.4699995 99.8733327,37.57 L99.8733327,40.35 C99.8733327,40.3900002 99.8599995,40.4233332 99.8333327,40.45 C99.8066659,40.4766668 99.7733329,40.49 99.7333327,40.49 L99.2333327,40.49 Z M91.8199993,43 C91.7199988,43 91.6349996,42.9650004 91.5649993,42.895 C91.4949989,42.8249997 91.4599993,42.7400005 91.4599993,42.64 L91.4599993,37.97 L90.8199993,37.97 C90.7799991,37.97 90.7466661,37.9566668 90.7199993,37.93 C90.6933325,37.9033332 90.6799993,37.8700002 90.6799993,37.83 L90.6799993,37.35 C90.6799993,37.3099998 90.6933325,37.2766668 90.7199993,37.25 C90.7466661,37.2233332 90.7799991,37.21 90.8199993,37.21 L95.0799993,37.21 C95.1799998,37.21 95.2649989,37.2449997 95.3349993,37.315 C95.4049996,37.3850004 95.4399993,37.4699995 95.4399993,37.57 L95.4399993,42.64 C95.4399993,42.7400005 95.4049996,42.8249997 95.3349993,42.895 C95.2649989,42.9650004 95.1799998,43 95.0799993,43 L91.8199993,43 Z M94.6599993,42.24 L94.6599993,37.97 L92.2399993,37.97 L92.2399993,42.24 L94.6599993,42.24 Z M79.5633325,43 C79.5233323,43 79.4899993,42.9866668 79.4633325,42.96 C79.4366657,42.9333332 79.4233325,42.9000002 79.4233325,42.86 L79.4233325,42.38 C79.4233325,42.3399998 79.4366657,42.3066668 79.4633325,42.28 C79.4899993,42.2533332 79.5233323,42.24 79.5633325,42.24 L80.4733325,42.24 L80.4733325,37.97 L79.8533325,37.97 C79.8133323,37.97 79.7799993,37.9566668 79.7533325,37.93 C79.7266657,37.9033332 79.7133325,37.8700002 79.7133325,37.83 L79.7133325,37.35 C79.7133325,37.3099998 79.7266657,37.2766668 79.7533325,37.25 C79.7799993,37.2233332 79.8133323,37.21 79.8533325,37.21 L80.8933325,37.21 C80.993333,37.21 81.0783322,37.2449997 81.1483325,37.315 C81.2183329,37.3850004 81.2533325,37.4699995 81.2533325,37.57 L81.2533325,42.24 L82.0533325,42.24 C82.420001,42.24 82.7266646,42.1233345 82.9733325,41.89 C83.2200004,41.6566655 83.3433325,41.3566685 83.3433325,40.99 L83.3433325,37.97 L82.8133325,37.97 C82.7733323,37.97 82.7399993,37.9566668 82.7133325,37.93 C82.6866657,37.9033332 82.6733325,37.8700002 82.6733325,37.83 L82.6733325,37.35 C82.6733325,37.3099998 82.6866657,37.2766668 82.7133325,37.25 C82.7399993,37.2233332 82.7733323,37.21 82.8133325,37.21 L83.7533325,37.21 C83.853333,37.21 83.9383322,37.2449997 84.0083325,37.315 C84.0783329,37.3850004 84.1133325,37.4699995 84.1133325,37.57 L84.1133325,41.01 C84.1133325,41.3833352 84.0200001,41.7216652 83.8333325,42.025 C83.6466649,42.3283349 83.4000007,42.5666658 83.0933325,42.74 C82.7866643,42.9133342 82.4633342,43 82.1233325,43 L79.5633325,43 Z M74.6099992,43 C74.569999,43 74.536666,42.9866668 74.5099992,42.96 C74.4833324,42.9333332 74.4699992,42.9000002 74.4699992,42.86 L74.4699992,42.18 C74.4699992,41.7933314 74.5249986,41.4483349 74.6349992,41.145 C74.7449997,40.8416652 74.8766651,40.5866677 75.0299992,40.38 C75.1833333,40.1733323 75.3866646,39.9333347 75.6399992,39.66 C75.9200006,39.3666652 76.1249985,39.1150011 76.2549992,38.905 C76.3849998,38.694999 76.4499992,38.456668 76.4499992,38.19 L76.4499992,37.97 L73.7199992,37.97 C73.5733318,37.97 73.453333,37.9233338 73.3599992,37.83 C73.2666654,37.7366662 73.2199992,37.6166674 73.2199992,37.47 L73.2199992,35.85 C73.2199992,35.8099998 73.2333324,35.7766668 73.2599992,35.75 C73.286666,35.7233332 73.319999,35.71 73.3599992,35.71 L73.8599992,35.71 C73.8999994,35.71 73.9333324,35.7233332 73.9599992,35.75 C73.986666,35.7766668 73.9999992,35.8099998 73.9999992,35.85 L73.9999992,37.21 L76.8499992,37.21 C76.9499997,37.21 77.0349988,37.2449997 77.1049992,37.315 C77.1749995,37.3850004 77.2099992,37.4699995 77.2099992,37.57 L77.2099992,38.06 C77.2099992,38.3866683 77.163333,38.6766654 77.0699992,38.93 C76.9766654,39.1833346 76.8633332,39.3999991 76.7299992,39.58 C76.5966652,39.7600009 76.4200003,39.9666655 76.1999992,40.2 C75.9866648,40.4266678 75.8199998,40.6199992 75.6999992,40.78 C75.5799986,40.9400008 75.4783329,41.1283323 75.3949992,41.345 C75.3116654,41.5616678 75.2699992,41.8066653 75.2699992,42.08 L75.2699992,42.86 C75.2699992,42.9000002 75.256666,42.9333332 75.2299992,42.96 C75.2033324,42.9866668 75.1699994,43 75.1299992,43 L74.6099992,43 Z M63.8633324,43.04 C63.8166655,43.04 63.7816659,43.0266668 63.7583324,43 C63.734999,42.9733332 63.7233324,42.9400002 63.7233324,42.9 L63.7233324,42.4 C63.7233324,42.3599998 63.7366656,42.3266668 63.7633324,42.3 C63.7899992,42.2733332 63.8233322,42.26 63.8633324,42.26 L64.0233324,42.26 C64.1299996,42.26 64.2349986,42.2350003 64.3383324,42.185 C64.4416663,42.1349998 64.6166645,42.0266675 64.8633324,41.86 L65.1133324,41.7 L65.7733324,41.27 L65.7733324,37.97 L64.3733324,37.97 C64.3333322,37.97 64.2999992,37.9566668 64.2733324,37.93 C64.2466656,37.9033332 64.2333324,37.8700002 64.2333324,37.83 L64.2333324,37.35 C64.2333324,37.3099998 64.2466656,37.2766668 64.2733324,37.25 C64.2999992,37.2233332 64.3333322,37.21 64.3733324,37.21 L66.1933324,37.21 C66.2933329,37.21 66.3783321,37.2449997 66.4483324,37.315 C66.5183328,37.3850004 66.5533324,37.4699995 66.5533324,37.57 L66.5533324,42.86 C66.5533324,42.9000002 66.5399992,42.9333332 66.5133324,42.96 C66.4866656,42.9866668 66.4533326,43 66.4133324,43 L65.9333324,43 C65.8933322,43 65.8599992,42.9866668 65.8333324,42.96 C65.8066656,42.9333332 65.7933324,42.9000002 65.7933324,42.86 L65.7933324,42.11 L65.7733324,42.11 L65.1333324,42.55 C64.8599977,42.7366676 64.6483332,42.8649997 64.4983324,42.935 C64.3483317,43.0050004 64.1833333,43.04 64.0033324,43.04 L63.8633324,43.04 Z M58.649999,43.04 C58.6033321,43.04 58.5683325,43.0266668 58.544999,43 C58.5216656,42.9733332 58.509999,42.9400002 58.509999,42.9 L58.509999,42.4 C58.509999,42.3599998 58.5233322,42.3266668 58.549999,42.3 C58.5766658,42.2733332 58.6099988,42.26 58.649999,42.26 L58.809999,42.26 C58.9166662,42.26 59.0216652,42.2350003 59.124999,42.185 C59.2283329,42.1349998 59.4033311,42.0266675 59.649999,41.86 L59.899999,41.7 L60.559999,41.27 L60.559999,37.97 L59.159999,37.97 C59.1199988,37.97 59.0866658,37.9566668 59.059999,37.93 C59.0333322,37.9033332 59.019999,37.8700002 59.019999,37.83 L59.019999,37.35 C59.019999,37.3099998 59.0333322,37.2766668 59.059999,37.25 C59.0866658,37.2233332 59.1199988,37.21 59.159999,37.21 L60.979999,37.21 C61.0799995,37.21 61.1649987,37.2449997 61.234999,37.315 C61.3049994,37.3850004 61.339999,37.4699995 61.339999,37.57 L61.339999,42.86 C61.339999,42.9000002 61.3266658,42.9333332 61.299999,42.96 C61.2733322,42.9866668 61.2399992,43 61.199999,43 L60.719999,43 C60.6799988,43 60.6466658,42.9866668 60.619999,42.96 C60.5933322,42.9333332 60.579999,42.9000002 60.579999,42.86 L60.579999,42.11 L60.559999,42.11 L59.919999,42.55 C59.6466643,42.7366676 59.4349998,42.8649997 59.284999,42.935 C59.1349983,43.0050004 58.9699999,43.04 58.789999,43.04 L58.649999,43.04 Z M55.4366657,43 C55.3966655,43 55.3633325,42.9866668 55.3366657,42.96 C55.3099989,42.9333332 55.2966657,42.9000002 55.2966657,42.86 L55.2966657,37.97 L54.4666657,37.97 C54.4266655,37.97 54.3933325,37.9566668 54.3666657,37.93 C54.3399989,37.9033332 54.3266657,37.8700002 54.3266657,37.83 L54.3266657,37.35 C54.3266657,37.3099998 54.3399989,37.2766668 54.3666657,37.25 C54.3933325,37.2233332 54.4266655,37.21 54.4666657,37.21 L55.7166657,37.21 C55.8166662,37.21 55.9016653,37.2449997 55.9716657,37.315 C56.041666,37.3850004 56.0766657,37.4699995 56.0766657,37.57 L56.0766657,42.86 C56.0766657,42.9000002 56.0633325,42.9333332 56.0366657,42.96 C56.0099989,42.9866668 55.9766659,43 55.9366657,43 L55.4366657,43 Z M46.7633323,43 C46.7233321,43 46.6899991,42.9866668 46.6633323,42.96 C46.6366655,42.9333332 46.6233323,42.9000002 46.6233323,42.86 L46.6233323,42.38 C46.6233323,42.3399998 46.6366655,42.3066668 46.6633323,42.28 C46.6899991,42.2533332 46.7233321,42.24 46.7633323,42.24 L47.5733323,42.24 L47.5733323,37.97 L46.7633323,37.97 C46.7233321,37.97 46.6899991,37.9566668 46.6633323,37.93 C46.6366655,37.9033332 46.6233323,37.8700002 46.6233323,37.83 L46.6233323,37.35 C46.6233323,37.3099998 46.6366655,37.2766668 46.6633323,37.25 C46.6899991,37.2233332 46.7233321,37.21 46.7633323,37.21 L51.2833323,37.21 C51.3833328,37.21 51.468332,37.2449997 51.5383323,37.315 C51.6083327,37.3850004 51.6433323,37.4699995 51.6433323,37.57 L51.6433323,42.86 C51.6433323,42.9000002 51.6299991,42.9333332 51.6033323,42.96 C51.5766655,42.9866668 51.5433325,43 51.5033323,43 L51.0033323,43 C50.9633321,43 50.9299991,42.9866668 50.9033323,42.96 C50.8766655,42.9333332 50.8633323,42.9000002 50.8633323,42.86 L50.8633323,37.97 L48.3533323,37.97 L48.3533323,42.64 C48.3533323,42.7400005 48.3183327,42.8249997 48.2483323,42.895 C48.178332,42.9650004 48.0933328,43 47.9933323,43 L46.7633323,43 Z M39.4666656,40.49 C39.4266654,40.49 39.3933324,40.4766668 39.3666656,40.45 C39.3399988,40.4233332 39.3266656,40.3900002 39.3266656,40.35 L39.3266656,37.97 L38.4966656,37.97 C38.4566654,37.97 38.4233324,37.9566668 38.3966656,37.93 C38.3699988,37.9033332 38.3566656,37.8700002 38.3566656,37.83 L38.3566656,37.35 C38.3566656,37.3099998 38.3699988,37.2766668 38.3966656,37.25 C38.4233324,37.2233332 38.4566654,37.21 38.4966656,37.21 L39.7466656,37.21 C39.8466661,37.21 39.9316652,37.2449997 40.0016656,37.315 C40.0716659,37.3850004 40.1066656,37.4699995 40.1066656,37.57 L40.1066656,40.35 C40.1066656,40.3900002 40.0933324,40.4233332 40.0666656,40.45 C40.0399988,40.4766668 40.0066658,40.49 39.9666656,40.49 L39.4666656,40.49 Z M35.0333322,43 C34.993332,43 34.959999,42.9866668 34.9333322,42.96 C34.9066654,42.9333332 34.8933322,42.9000002 34.8933322,42.86 L34.8933322,37.97 L31.9233322,37.97 C31.883332,37.97 31.849999,37.9566668 31.8233322,37.93 C31.7966654,37.9033332 31.7833322,37.8700002 31.7833322,37.83 L31.7833322,37.35 C31.7833322,37.3099998 31.7966654,37.2766668 31.8233322,37.25 C31.849999,37.2233332 31.883332,37.21 31.9233322,37.21 L35.3133322,37.21 C35.4133327,37.21 35.4983318,37.2449997 35.5683322,37.315 C35.6383325,37.3850004 35.6733322,37.4699995 35.6733322,37.57 L35.6733322,42.86 C35.6733322,42.9000002 35.659999,42.9333332 35.6333322,42.96 C35.6066654,42.9866668 35.5733324,43 35.5333322,43 L35.0333322,43 Z M28.4599988,43 C28.4199986,43 28.3866656,42.9866668 28.3599988,42.96 C28.333332,42.9333332 28.3199988,42.9000002 28.3199988,42.86 L28.3199988,37.97 L27.4899988,37.97 C27.4499986,37.97 27.4166656,37.9566668 27.3899988,37.93 C27.363332,37.9033332 27.3499988,37.8700002 27.3499988,37.83 L27.3499988,37.35 C27.3499988,37.3099998 27.363332,37.2766668 27.3899988,37.25 C27.4166656,37.2233332 27.4499986,37.21 27.4899988,37.21 L28.7399988,37.21 C28.8399993,37.21 28.9249985,37.2449997 28.9949988,37.315 C29.0649992,37.3850004 29.0999988,37.4699995 29.0999988,37.57 L29.0999988,42.86 C29.0999988,42.9000002 29.0866656,42.9333332 29.0599988,42.96 C29.033332,42.9866668 28.999999,43 28.9599988,43 L28.4599988,43 Z M20.5866654,43 C20.239997,43 19.945,42.8783346 19.7016654,42.635 C19.4583309,42.3916655 19.3366654,42.0966684 19.3366654,41.75 L19.3366654,37.57 C19.3366654,37.4699995 19.3716651,37.3850004 19.4416654,37.315 C19.5116658,37.2449997 19.5966649,37.21 19.6966654,37.21 L20.5966654,37.21 C20.6366656,37.21 20.6699986,37.2233332 20.6966654,37.25 C20.7233322,37.2766668 20.7366654,37.3099998 20.7366654,37.35 L20.7366654,37.81 C20.7366654,37.8500002 20.7233322,37.8833332 20.6966654,37.91 C20.6699986,37.9366668 20.6366656,37.95 20.5966654,37.95 L20.0666654,37.95 L20.0666654,41.76 C20.0666654,41.893334 20.1133316,42.0066662 20.2066654,42.1 C20.2999992,42.1933338 20.4133314,42.24 20.5466654,42.24 L21.6566654,42.24 L21.6566654,37.35 C21.6566654,37.3099998 21.6699986,37.2766668 21.6966654,37.25 C21.7233322,37.2233332 21.7566652,37.21 21.7966654,37.21 L22.2466654,37.21 C22.2866656,37.21 22.3199986,37.2233332 22.3466654,37.25 C22.3733322,37.2766668 22.3866654,37.3099998 22.3866654,37.35 L22.3866654,42.24 L23.4966654,42.24 C23.6299994,42.24 23.7449983,42.1933338 23.8416654,42.1 C23.9383326,42.0066662 23.9866654,41.893334 23.9866654,41.76 L23.9866654,37.95 L23.4566654,37.95 C23.4166652,37.95 23.3833322,37.9366668 23.3566654,37.91 C23.3299986,37.8833332 23.3166654,37.8500002 23.3166654,37.81 L23.3166654,37.35 C23.3166654,37.3099998 23.3299986,37.2766668 23.3566654,37.25 C23.3833322,37.2233332 23.4166652,37.21 23.4566654,37.21 L24.3566654,37.21 C24.4566659,37.21 24.5416651,37.2449997 24.6116654,37.315 C24.6816658,37.3850004 24.7166654,37.4699995 24.7166654,37.57 L24.7166654,41.75 C24.7166654,42.0966684 24.5933333,42.3916655 24.3466654,42.635 C24.0999975,42.8783346 23.8033338,43 23.4566654,43 L20.5866654,43 Z M14.1533321,43 C14.1133319,43 14.0799989,42.9866668 14.0533321,42.96 C14.0266653,42.9333332 14.0133321,42.9000002 14.0133321,42.86 L14.0133321,42.18 C14.0133321,41.7933314 14.0683315,41.4483349 14.1783321,41.145 C14.2883326,40.8416652 14.419998,40.5866677 14.5733321,40.38 C14.7266662,40.1733323 14.9299975,39.9333347 15.1833321,39.66 C15.4633335,39.3666652 15.6683314,39.1150011 15.7983321,38.905 C15.9283327,38.694999 15.9933321,38.456668 15.9933321,38.19 L15.9933321,37.97 L13.2633321,37.97 C13.1166647,37.97 12.9966659,37.9233338 12.9033321,37.83 C12.8099983,37.7366662 12.7633321,37.6166674 12.7633321,37.47 L12.7633321,35.85 C12.7633321,35.8099998 12.7766653,35.7766668 12.8033321,35.75 C12.8299989,35.7233332 12.8633319,35.71 12.9033321,35.71 L13.4033321,35.71 C13.4433323,35.71 13.4766653,35.7233332 13.5033321,35.75 C13.5299989,35.7766668 13.5433321,35.8099998 13.5433321,35.85 L13.5433321,37.21 L16.3933321,37.21 C16.4933326,37.21 16.5783317,37.2449997 16.6483321,37.315 C16.7183324,37.3850004 16.7533321,37.4699995 16.7533321,37.57 L16.7533321,38.06 C16.7533321,38.3866683 16.7066659,38.6766654 16.6133321,38.93 C16.5199983,39.1833346 16.4066661,39.3999991 16.2733321,39.58 C16.1399981,39.7600009 15.9633332,39.9666655 15.7433321,40.2 C15.5299977,40.4266678 15.3633327,40.6199992 15.2433321,40.78 C15.1233315,40.9400008 15.0216658,41.1283323 14.9383321,41.345 C14.8549983,41.5616678 14.8133321,41.8066653 14.8133321,42.08 L14.8133321,42.86 C14.8133321,42.9000002 14.7999989,42.9333332 14.7733321,42.96 C14.7466653,42.9866668 14.7133323,43 14.6733321,43 L14.1533321,43 Z M9.53999869,40.49 C9.49999849,40.49 9.46666549,40.4766668 9.43999869,40.45 C9.41333189,40.4233332 9.39999869,40.3900002 9.39999869,40.35 L9.39999869,37.97 L8.56999869,37.97 C8.52999849,37.97 8.49666549,37.9566668 8.46999869,37.93 C8.44333189,37.9033332 8.42999869,37.8700002 8.42999869,37.83 L8.42999869,37.35 C8.42999869,37.3099998 8.44333189,37.2766668 8.46999869,37.25 C8.49666549,37.2233332 8.52999849,37.21 8.56999869,37.21 L9.81999869,37.21 C9.91999919,37.21 10.0049983,37.2449997 10.0749987,37.315 C10.144999,37.3850004 10.1799987,37.4699995 10.1799987,37.57 L10.1799987,40.35 C10.1799987,40.3900002 10.1666655,40.4233332 10.1399987,40.45 C10.1133319,40.4766668 10.0799989,40.49 10.0399987,40.49 L9.53999869,40.49 Z M2.12666532,43 C2.02666482,43 1.94166567,42.9650004 1.87166532,42.895 C1.80166497,42.8249997 1.76666532,42.7400005 1.76666532,42.64 L1.76666532,37.97 L1.12666532,37.97 C1.08666512,37.97 1.05333212,37.9566668 1.02666532,37.93 C0.999998516,37.9033332 0.986665316,37.8700002 0.986665316,37.83 L0.986665316,37.35 C0.986665316,37.3099998 0.999998516,37.2766668 1.02666532,37.25 C1.05333212,37.2233332 1.08666512,37.21 1.12666532,37.21 L5.38666532,37.21 C5.48666582,37.21 5.57166497,37.2449997 5.64166532,37.315 C5.71166567,37.3850004 5.74666532,37.4699995 5.74666532,37.57 L5.74666532,42.64 C5.74666532,42.7400005 5.71166567,42.8249997 5.64166532,42.895 C5.57166497,42.9650004 5.48666582,43 5.38666532,43 L2.12666532,43 Z M4.96666532,42.24 L4.96666532,37.97 L2.54666532,37.97 L2.54666532,42.24 L4.96666532,42.24 Z" id="אמנות,-רוחות-ושדים-ע"></path>
                <path d="M68.6329995,81.117 C68.2009973,81.117 67.8065013,81.0270009 67.4494995,80.847 C67.0924977,80.6669991 66.8120005,80.4195016 66.6079995,80.1045 C66.4039985,79.7894984 66.3019995,79.4430019 66.3019995,79.065 C66.3019995,78.7589985 66.3709988,78.4665014 66.5089995,78.1875 C66.6470002,77.9084986 66.8419982,77.664001 67.0939995,77.454 C66.9379987,77.3039992 66.8179999,77.124001 66.7339995,76.914 C66.6499991,76.7039989 66.6079995,76.4850011 66.6079995,76.257 C66.6079995,75.9209983 66.6979986,75.6135014 66.8779995,75.3345 C67.0580004,75.0554986 67.3024979,74.8365008 67.6114995,74.6775 C67.920501,74.5184992 68.2609976,74.439 68.6329995,74.439 C69.0050013,74.439 69.3454979,74.5184992 69.6544995,74.6775 C69.963501,74.8365008 70.2094986,75.0539986 70.3924995,75.33 C70.5755004,75.6060014 70.6669995,75.9089983 70.6669995,76.239 C70.6669995,76.6950023 70.4840013,77.1479977 70.1179995,77.598 C70.3940009,77.7720009 70.6054987,77.9894987 70.7524995,78.2505 C70.8995002,78.5115013 70.9729995,78.7949985 70.9729995,79.101 C70.9729995,79.4730019 70.8695005,79.8119985 70.6624995,80.118 C70.4554984,80.4240015 70.1720013,80.6669991 69.8119995,80.847 C69.4519977,81.0270009 69.0590016,81.117 68.6329995,81.117 Z M69.2089995,77.229 C69.323,77.0969993 69.4144991,76.9470008 69.4834995,76.779 C69.5524998,76.6109992 69.5869995,76.4490008 69.5869995,76.293 C69.5869995,76.0349987 69.4970004,75.8250008 69.3169995,75.663 C69.1369986,75.5009992 68.9120008,75.42 68.6419995,75.42 C68.3719981,75.42 68.1470004,75.4979992 67.9669995,75.654 C67.7869986,75.8100008 67.6969995,76.0079988 67.6969995,76.248 C67.6969995,76.5240014 67.8229982,76.7294993 68.0749995,76.8645 C68.3270007,76.9995007 68.704997,77.1209995 69.2089995,77.229 Z M68.6329995,80.145 C68.9870012,80.145 69.2839983,80.040001 69.5239995,79.83 C69.7640007,79.6199989 69.8839995,79.3620015 69.8839995,79.056 C69.8839995,78.8459989 69.8195001,78.6795006 69.6904995,78.5565 C69.5614988,78.4334994 69.3935005,78.3375003 69.1864995,78.2685 C68.9794984,78.1994997 68.6720015,78.1200004 68.2639995,78.03 L67.9399995,77.958 C67.7719986,78.0720006 67.6385,78.226499 67.5394995,78.4215 C67.440499,78.616501 67.3909995,78.8219989 67.3909995,79.038 C67.3909995,79.3560016 67.5079983,79.6199989 67.7419995,79.83 C67.9760006,80.040001 68.2729977,80.145 68.6329995,80.145 Z M73.6309995,78.75 C73.5769993,78.75 73.5319997,78.7320002 73.4959995,78.696 C73.4599993,78.6599998 73.4419995,78.6150003 73.4419995,78.561 L73.4419995,77.895 C73.4419995,77.8409997 73.4599993,77.7960002 73.4959995,77.76 C73.5319997,77.7239998 73.5769993,77.706 73.6309995,77.706 L78.4549995,77.706 C78.5089998,77.706 78.5539993,77.7239998 78.5899995,77.76 C78.6259997,77.7960002 78.6439995,77.8409997 78.6439995,77.895 L78.6439995,78.561 C78.6439995,78.6150003 78.6259997,78.6599998 78.5899995,78.696 C78.5539993,78.7320002 78.5089998,78.75 78.4549995,78.75 L73.6309995,78.75 Z M80.6539996,81 C80.5999993,81 80.5549998,80.9820002 80.5189996,80.946 C80.4829994,80.9099998 80.4649996,80.8650003 80.4649996,80.811 L80.4649996,80.172 C80.4649996,80.1179997 80.4829994,80.0730002 80.5189996,80.037 C80.5549998,80.0009998 80.5999993,79.983 80.6539996,79.983 L81.6709996,79.983 L81.6709996,75.978 L80.9149996,75.978 C80.8429992,75.978 80.7814998,75.9525003 80.7304996,75.9015 C80.6794993,75.8504997 80.6539996,75.7890004 80.6539996,75.717 L80.6539996,75.285 L82.1119996,74.529 L82.4629996,74.529 C82.5349999,74.529 82.5964993,74.5544997 82.6474996,74.6055 C82.6984998,74.6565003 82.7239996,74.7179996 82.7239996,74.79 L82.7239996,79.983 L83.7409996,79.983 C83.7949998,79.983 83.8399994,80.0009998 83.8759996,80.037 C83.9119998,80.0730002 83.9299996,80.1179997 83.9299996,80.172 L83.9299996,80.811 C83.9299996,80.8650003 83.9119998,80.9099998 83.8759996,80.946 C83.8399994,80.9820002 83.7949998,81 83.7409996,81 L80.6539996,81 Z M87.9649996,81.117 C87.5629976,81.117 87.1940013,81.019501 86.8579996,80.8245 C86.5219979,80.629499 86.2565006,80.3640017 86.0614996,80.028 C85.8664986,79.6919983 85.7689996,79.323002 85.7689996,78.921 C85.7689996,78.4049974 85.7899994,77.9535019 85.8319996,77.5665 C85.8739998,77.1794981 85.957999,76.8240016 86.0839996,76.5 C86.3060007,75.905997 86.676497,75.4350017 87.1954996,75.087 C87.7145022,74.7389983 88.2949964,74.565 88.9369996,74.565 L89.1529996,74.565 C89.2069999,74.565 89.2519994,74.5829998 89.2879996,74.619 C89.3239998,74.6550002 89.3419996,74.6999997 89.3419996,74.754 L89.3419996,75.393 C89.3419996,75.4470003 89.3239998,75.4919998 89.2879996,75.528 C89.2519994,75.5640002 89.2069999,75.582 89.1529996,75.582 L88.9369996,75.582 C88.4389971,75.582 88.0025015,75.7154987 87.6274996,75.9825 C87.2524977,76.2495013 87.0140001,76.6289975 86.9119996,77.121 C87.0740004,76.9889993 87.2584986,76.8885003 87.4654996,76.8195 C87.6725007,76.7504997 87.8689987,76.716 88.0549996,76.716 C88.4450016,76.716 88.800498,76.813499 89.1214996,77.0085 C89.4425012,77.203501 89.6974987,77.4704983 89.8864996,77.8095 C90.0755006,78.1485017 90.1699996,78.518998 90.1699996,78.921 C90.1699996,79.317002 90.0710006,79.6829983 89.8729996,80.019 C89.6749986,80.3550017 89.4065013,80.621999 89.0674996,80.82 C88.7284979,81.018001 88.3610016,81.117 87.9649996,81.117 Z M87.9649996,80.091 C88.1690006,80.091 88.3579987,80.0385005 88.5319996,79.9335 C88.7060005,79.8284995 88.8439991,79.6860009 88.9459996,79.506 C89.0480001,79.3259991 89.0989996,79.131001 89.0989996,78.921 C89.0989996,78.7109989 89.0465001,78.5160009 88.9414996,78.336 C88.8364991,78.1559991 88.6970005,78.0120005 88.5229996,77.904 C88.3489987,77.7959995 88.1630006,77.742 87.9649996,77.742 C87.646998,77.742 87.3815007,77.8544989 87.1684996,78.0795 C86.9554986,78.3045011 86.8489996,78.5849983 86.8489996,78.921 C86.8489996,79.2570017 86.9554986,79.5359989 87.1684996,79.758 C87.3815007,79.9800011 87.646998,80.091 87.9649996,80.091 Z M93.0439997,81.216 C92.8339986,81.216 92.6555004,81.1440007 92.5084997,81 C92.3614989,80.8559993 92.2879997,80.679001 92.2879997,80.469 C92.2879997,80.2589989 92.3614989,80.0820007 92.5084997,79.938 C92.6555004,79.7939993 92.8339986,79.722 93.0439997,79.722 C93.2480007,79.722 93.4219989,79.7954993 93.5659997,79.9425 C93.7100004,80.0895007 93.7819997,80.264999 93.7819997,80.469 C93.7819997,80.673001 93.7100004,80.8484993 93.5659997,80.9955 C93.4219989,81.1425007 93.2480007,81.216 93.0439997,81.216 Z M98.2669997,81.117 C97.8349976,81.117 97.4405015,81.0270009 97.0834997,80.847 C96.7264979,80.6669991 96.4460007,80.4195016 96.2419997,80.1045 C96.0379987,79.7894984 95.9359997,79.4430019 95.9359997,79.065 C95.9359997,78.7589985 96.004999,78.4665014 96.1429997,78.1875 C96.2810004,77.9084986 96.4759985,77.664001 96.7279997,77.454 C96.5719989,77.3039992 96.4520001,77.124001 96.3679997,76.914 C96.2839993,76.7039989 96.2419997,76.4850011 96.2419997,76.257 C96.2419997,75.9209983 96.3319988,75.6135014 96.5119997,75.3345 C96.6920006,75.0554986 96.9364982,74.8365008 97.2454997,74.6775 C97.5545013,74.5184992 97.8949979,74.439 98.2669997,74.439 C98.6390016,74.439 98.9794982,74.5184992 99.2884997,74.6775 C99.5975013,74.8365008 99.8434988,75.0539986 100.0265,75.33 C100.209501,75.6060014 100.301,75.9089983 100.301,76.239 C100.301,76.6950023 100.118002,77.1479977 99.7519997,77.598 C100.028001,77.7720009 100.239499,77.9894987 100.3865,78.2505 C100.5335,78.5115013 100.607,78.7949985 100.607,79.101 C100.607,79.4730019 100.503501,79.8119985 100.2965,80.118 C100.089499,80.4240015 99.8060015,80.6669991 99.4459997,80.847 C99.0859979,81.0270009 98.6930018,81.117 98.2669997,81.117 Z M98.8429997,77.229 C98.9570003,77.0969993 99.0484994,76.9470008 99.1174997,76.779 C99.1865001,76.6109992 99.2209997,76.4490008 99.2209997,76.293 C99.2209997,76.0349987 99.1310006,75.8250008 98.9509997,75.663 C98.7709988,75.5009992 98.5460011,75.42 98.2759997,75.42 C98.0059984,75.42 97.7810006,75.4979992 97.6009997,75.654 C97.4209988,75.8100008 97.3309997,76.0079988 97.3309997,76.248 C97.3309997,76.5240014 97.4569985,76.7294993 97.7089997,76.8645 C97.961001,76.9995007 98.3389972,77.1209995 98.8429997,77.229 Z M98.2669997,80.145 C98.6210015,80.145 98.9179985,80.040001 99.1579997,79.83 C99.3980009,79.6199989 99.5179997,79.3620015 99.5179997,79.056 C99.5179997,78.8459989 99.4535004,78.6795006 99.3244997,78.5565 C99.1954991,78.4334994 99.0275007,78.3375003 98.8204997,78.2685 C98.6134987,78.1994997 98.3060018,78.1200004 97.8979997,78.03 L97.5739997,77.958 C97.4059989,78.0720006 97.2725002,78.226499 97.1734997,78.4215 C97.0744992,78.616501 97.0249997,78.8219989 97.0249997,79.038 C97.0249997,79.3560016 97.1419985,79.6199989 97.3759997,79.83 C97.6100009,80.040001 97.9069979,80.145 98.2669997,80.145 Z M103.517,81.216 C103.306999,81.216 103.1285,81.1440007 102.9815,81 C102.834499,80.8559993 102.761,80.679001 102.761,80.469 C102.761,80.2589989 102.834499,80.0820007 102.9815,79.938 C103.1285,79.7939993 103.306999,79.722 103.517,79.722 C103.721001,79.722 103.894999,79.7954993 104.039,79.9425 C104.183,80.0895007 104.255,80.264999 104.255,80.469 C104.255,80.673001 104.183,80.8484993 104.039,80.9955 C103.894999,81.1425007 103.721001,81.216 103.517,81.216 Z M107.165,81 C107.056999,81 106.9655,80.9625004 106.8905,80.8875 C106.815499,80.8124996 106.778,80.7240005 106.778,80.622 L106.778,79.902 C106.778,79.4279976 106.840999,79.0545014 106.967,78.7815 C107.093,78.5084986 107.287998,78.273001 107.552,78.075 C107.816001,77.876999 108.259997,77.5950018 108.884,77.229 C109.100001,77.1029994 109.257499,76.9635008 109.3565,76.8105 C109.4555,76.6574992 109.505,76.4880009 109.505,76.302 C109.505,76.0499987 109.422501,75.8490007 109.2575,75.699 C109.092499,75.5489992 108.863001,75.474 108.569,75.474 C108.208998,75.474 107.834002,75.5879989 107.444,75.816 C107.408,75.8340001 107.369,75.843 107.327,75.843 C107.254999,75.843 107.201,75.8100003 107.165,75.744 L106.868,75.204 C106.85,75.1739998 106.841,75.1440001 106.841,75.114 C106.841,75.0479997 106.868,74.9970002 106.922,74.961 C107.162001,74.7989992 107.433498,74.6730004 107.7365,74.583 C108.039501,74.4929995 108.349998,74.448 108.668,74.448 C109.268003,74.448 109.737498,74.6099984 110.0765,74.934 C110.415502,75.2580016 110.585,75.7019972 110.585,76.266 C110.585,76.6800021 110.483001,77.0294986 110.279,77.3145 C110.074999,77.5995014 109.739002,77.8919985 109.271,78.192 C109.126999,78.2820004 109.007,78.3539997 108.911,78.408 C108.652999,78.5640008 108.455,78.6944995 108.317,78.7995 C108.178999,78.9045005 108.065,79.0304993 107.975,79.1775 C107.884999,79.3245007 107.84,79.496999 107.84,79.695 L107.84,79.956 L110.18,79.956 C110.234,79.956 110.279,79.9739998 110.315,80.01 C110.351,80.0460002 110.369,80.0909997 110.369,80.145 L110.369,80.811 C110.369,80.8650003 110.351,80.9099998 110.315,80.946 C110.279,80.9820002 110.234,81 110.18,81 L107.165,81 Z M115.025,81.117 C114.274996,81.117 113.708002,80.8350028 113.324,80.271 C112.939998,79.7069972 112.748,78.8760055 112.748,77.778 C112.748,76.6859945 112.941498,75.8580028 113.3285,75.294 C113.715502,74.7299972 114.280996,74.448 115.025,74.448 C115.769004,74.448 116.332998,74.7299972 116.717,75.294 C117.101002,75.8580028 117.293,76.6859945 117.293,77.778 C117.293,78.8820055 117.102502,79.7144972 116.7215,80.2755 C116.340498,80.8365028 115.775004,81.117 115.025,81.117 Z M115.025,80.091 C115.301001,80.091 115.522999,80.0130008 115.691,79.857 C115.859001,79.7009992 115.981999,79.4550017 116.06,79.119 C116.138,78.7829983 116.177,78.3360028 116.177,77.778 C116.177,77.2199972 116.138,76.7745017 116.06,76.4415 C115.981999,76.1084983 115.859001,75.8655008 115.691,75.7125 C115.522999,75.5594992 115.298001,75.483 115.016,75.483 C114.739998,75.483 114.518001,75.5609992 114.35,75.717 C114.181999,75.8730008 114.059,76.1204983 113.981,76.4595 C113.902999,76.7985017 113.864,77.2499972 113.864,77.814 C113.864,78.624004 113.953999,79.2059982 114.134,79.56 C114.314001,79.9140018 114.610998,80.091 115.025,80.091 Z M119.609,81 C119.555,81 119.51,80.9820002 119.474,80.946 C119.438,80.9099998 119.42,80.8650003 119.42,80.811 L119.42,80.172 C119.42,80.1179997 119.438,80.0730002 119.474,80.037 C119.51,80.0009998 119.555,79.983 119.609,79.983 L120.626,79.983 L120.626,75.978 L119.87,75.978 C119.798,75.978 119.7365,75.9525003 119.6855,75.9015 C119.6345,75.8504997 119.609,75.7890004 119.609,75.717 L119.609,75.285 L121.067,74.529 L121.418,74.529 C121.49,74.529 121.5515,74.5544997 121.6025,74.6055 C121.6535,74.6565003 121.679,74.7179996 121.679,74.79 L121.679,79.983 L122.696,79.983 C122.75,79.983 122.795,80.0009998 122.831,80.037 C122.867,80.0730002 122.885,80.1179997 122.885,80.172 L122.885,80.811 C122.885,80.8650003 122.867,80.9099998 122.831,80.946 C122.795,80.9820002 122.75,81 122.696,81 L119.609,81 Z M126.974,81.117 C126.541998,81.117 126.147502,81.0270009 125.7905,80.847 C125.433498,80.6669991 125.153001,80.4195016 124.949,80.1045 C124.744999,79.7894984 124.643,79.4430019 124.643,79.065 C124.643,78.7589985 124.711999,78.4665014 124.85,78.1875 C124.988001,77.9084986 125.182999,77.664001 125.435,77.454 C125.278999,77.3039992 125.159,77.124001 125.075,76.914 C124.991,76.7039989 124.949,76.4850011 124.949,76.257 C124.949,75.9209983 125.038999,75.6135014 125.219,75.3345 C125.399001,75.0554986 125.643498,74.8365008 125.9525,74.6775 C126.261501,74.5184992 126.601998,74.439 126.974,74.439 C127.346002,74.439 127.686498,74.5184992 127.9955,74.6775 C128.304501,74.8365008 128.550499,75.0539986 128.7335,75.33 C128.916501,75.6060014 129.008,75.9089983 129.008,76.239 C129.008,76.6950023 128.825002,77.1479977 128.459,77.598 C128.735001,77.7720009 128.946499,77.9894987 129.0935,78.2505 C129.240501,78.5115013 129.314,78.7949985 129.314,79.101 C129.314,79.4730019 129.210501,79.8119985 129.0035,80.118 C128.796499,80.4240015 128.513002,80.6669991 128.153,80.847 C127.792998,81.0270009 127.400002,81.117 126.974,81.117 Z M127.55,77.229 C127.664001,77.0969993 127.7555,76.9470008 127.8245,76.779 C127.8935,76.6109992 127.928,76.4490008 127.928,76.293 C127.928,76.0349987 127.838001,75.8250008 127.658,75.663 C127.477999,75.5009992 127.253001,75.42 126.983,75.42 C126.712999,75.42 126.488001,75.4979992 126.308,75.654 C126.127999,75.8100008 126.038,76.0079988 126.038,76.248 C126.038,76.5240014 126.163999,76.7294993 126.416,76.8645 C126.668001,76.9995007 127.045997,77.1209995 127.55,77.229 Z M126.974,80.145 C127.328002,80.145 127.624999,80.040001 127.865,79.83 C128.105001,79.6199989 128.225,79.3620015 128.225,79.056 C128.225,78.8459989 128.160501,78.6795006 128.0315,78.5565 C127.902499,78.4334994 127.734501,78.3375003 127.5275,78.2685 C127.320499,78.1994997 127.013002,78.1200004 126.605,78.03 L126.281,77.958 C126.112999,78.0720006 125.9795,78.226499 125.8805,78.4215 C125.781499,78.616501 125.732,78.8219989 125.732,79.038 C125.732,79.3560016 125.848999,79.6199989 126.083,79.83 C126.317001,80.040001 126.613998,80.145 126.974,80.145 Z" id="8–16.8.2018"></path>
                <path d="M167.040001,10.744 L188.208001,10.744 L188.208001,13.24 L167.040001,13.24 L167.040001,10.744 Z M147.784001,18.088 C147.912002,17.095995 148.239999,15.1840142 148.768001,12.352 C148.896002,11.743997 148.992001,11.2320021 149.056001,10.816 C149.104002,10.5279986 149.128001,10.3120007 149.128001,10.168 C149.128001,10.0399994 149.096002,9.94000036 149.032001,9.868 C148.968001,9.79599964 148.816003,9.68800072 148.576001,9.544 L147.736001,9.04 C147.864002,7.6799932 148.104,6.42400576 148.456001,5.272 L149.008001,5.104 L150.088001,5.512 C150.712004,5.7520012 151.136,5.89999972 151.360001,5.956 C151.584002,6.01200028 151.816,6.04 152.056001,6.04 C152.280002,6.04 152.855997,5.97600064 153.784001,5.848 C153.944002,5.83199992 154.279999,5.79200032 154.792001,5.728 C155.304004,5.66399968 155.696,5.632 155.968001,5.632 C156.864006,5.632 157.623998,5.80399828 158.248001,6.148 C158.872004,6.49200172 159.312,6.99199672 159.568001,7.648 C159.776002,8.16000256 159.912001,8.7759964 159.976001,9.496 C160.040002,10.2160036 160.072001,11.1439943 160.072001,12.28 C160.072001,13.6400068 160.048002,14.8639946 160.000001,15.952 L159.736001,19 L153.232001,19 L153.400001,14.992 L157.192001,14.992 C157.192001,14.1759959 157.136002,13.0960067 157.024001,11.752 C156.976001,11.1279969 156.892002,10.6640015 156.772001,10.36 C156.652001,10.0559985 156.460003,9.84000064 156.196001,9.712 C155.932,9.58399936 155.536004,9.52 155.008001,9.52 C154.255998,9.52 153.328007,9.56799952 152.224001,9.664 C152.128001,10.5920046 152.044002,11.4759958 151.972001,12.316 C151.900001,13.1560042 151.832002,13.879997 151.768001,14.488 L151.384001,18.736 C150.471997,18.9760012 149.656005,19.1199998 148.936001,19.168 L147.808001,19.168 L147.784001,18.088 Z M150.736001,21.352 L152.464001,20.344 L153.424001,21.952 L151.720001,22.96 L150.736001,21.352 Z M153.952001,21.352 L155.680001,20.344 L156.640001,21.952 L154.936001,22.96 L153.952001,21.352 Z M140.528002,5.656 C141.360006,5.9760016 141.936,6.37199764 142.256002,6.844 C142.576004,7.31600236 142.736002,7.97599576 142.736002,8.824 C142.736002,9.60800392 142.552004,10.8479915 142.184002,12.544 C141.816,14.2400085 141.448004,15.5279956 141.080002,16.408 C140.279998,17.1280036 139.008011,17.891996 137.264002,18.7 C135.519993,19.508004 133.688012,20.1759974 131.768002,20.704 L130.832002,20.704 L130.832002,16.888 C132.320009,16.4559978 133.527997,16.0640018 134.456002,15.712 L132.920002,10.528 C132.808001,10.1439981 132.688003,9.87600076 132.560002,9.724 C132.432001,9.57199924 132.112005,9.34400152 131.600002,9.04 L130.880002,8.584 C131.264004,7.383994 131.704,6.28800496 132.200002,5.296 L132.872002,5.128 C133.336004,5.32000096 133.696001,5.48799928 133.952002,5.632 C134.672006,5.98400176 135.188,6.3999976 135.500002,6.88 C135.812004,7.3600024 136.064001,8.10399496 136.256002,9.112 C136.464003,10.1680053 136.792,12.0239867 137.240002,14.68 C138.136006,14.2959981 138.736,13.808003 139.040002,13.216 C139.344004,12.623997 139.512002,11.7440058 139.544002,10.576 C139.544002,10.175998 139.508002,9.90800068 139.436002,9.772 C139.364002,9.63599932 139.184003,9.49600072 138.896002,9.352 L137.504002,8.656 C137.984004,7.24799296 138.416,6.09600448 138.800002,5.2 L139.328002,5.2 C139.808004,5.3600008 140.208,5.51199928 140.528002,5.656 Z M135.440002,20.584 L140.768002,20.584 L140.768002,22.048 L135.440002,22.24 L135.440002,20.584 Z M117.528003,19.216 C117.448002,18.3679958 117.408003,17.6160033 117.408003,16.96 C117.408003,16.1439959 117.448002,15.440003 117.528003,14.848 C119.08001,14.0159958 120.359998,13.2680033 121.368003,12.604 C122.376008,11.9399967 123.040001,11.4160019 123.360003,11.032 C123.376003,10.6479981 123.364003,10.3680009 123.324003,10.192 C123.284002,10.0159991 123.204003,9.89600032 123.084003,9.832 C122.964002,9.76799968 122.768004,9.736 122.496003,9.736 C120.111991,9.736 118.720005,9.71200024 118.320003,9.664 C117.679999,9.59999968 117.220004,9.37200196 116.940003,8.98 C116.660001,8.58799804 116.488003,7.93600456 116.424003,7.024 C116.392003,6.44799712 116.376003,5.8800028 116.376003,5.32 C116.376003,3.7999924 116.416002,2.5600048 116.496003,1.6 C116.960005,1.42399912 117.504,1.26800068 118.128003,1.132 C118.752006,0.99599932 119.208001,0.928 119.496003,0.928 C119.560003,1.31200192 119.648002,2.19199312 119.760003,3.568 L119.832003,4.552 C119.864003,4.90400176 119.908002,5.15199928 119.964003,5.296 C120.020003,5.44000072 120.116002,5.53599976 120.252003,5.584 C120.388003,5.63200024 120.624001,5.66399992 120.960003,5.68 L121.896003,5.704 C122.344005,5.704 122.951999,5.71999984 123.720003,5.752 C124.616007,5.80000024 125.292,6.1039972 125.748003,6.664 C126.204005,7.2240028 126.432003,8.0239948 126.432003,9.064 C126.432003,12.3600165 123.71203,15.7439826 118.272003,19.216 L117.528003,19.216 Z M100.016004,12.112 C100.016004,11.4719968 100.000004,11.0440011 99.968004,10.828 C99.9360038,10.6119989 99.8640046,10.4480006 99.752004,10.336 C99.6400034,10.2239994 99.4000058,10.072001 99.032004,9.88 L97.160004,8.992 C97.4320054,7.4719924 97.7440022,6.25600456 98.096004,5.344 L98.792004,5.056 C100.120011,5.56800256 101.064001,5.9839984 101.624004,6.304 C102.296007,6.65600176 102.760003,7.10799724 103.016004,7.66 C103.272005,8.21200276 103.400004,8.99999488 103.400004,10.024 C103.400004,11.2400061 103.296005,14.1679768 103.088004,18.808 L100.952004,19.312 L100.016004,19.312 L100.016004,12.112 Z M96.368004,12.88 L98.288004,11.776 L99.344004,13.552 L97.472004,14.656 L96.368004,12.88 Z M79.9920047,18.088 C80.1200053,17.095995 80.448002,15.1840142 80.9760047,12.352 C81.1040053,11.743997 81.2000044,11.2320021 81.2640047,10.816 C81.3120049,10.5279986 81.3360047,10.3120007 81.3360047,10.168 C81.3360047,10.0399994 81.304005,9.94000036 81.2400047,9.868 C81.1760044,9.79599964 81.0240059,9.68800072 80.7840047,9.544 L79.9440047,9.04 C80.0720053,7.6799932 80.3120029,6.42400576 80.6640047,5.272 L81.2160047,5.104 L82.2960047,5.512 C82.9200078,5.7520012 83.3440036,5.89999972 83.5680047,5.956 C83.7920058,6.01200028 84.0240035,6.04 84.2640047,6.04 C84.4880058,6.04 85.064,5.97600064 85.9920047,5.848 C86.1520055,5.83199992 86.4880021,5.79200032 87.0000047,5.728 C87.5120072,5.66399968 87.9040033,5.632 88.1760047,5.632 C89.0720092,5.632 89.8320016,5.80399828 90.4560047,6.148 C91.0800078,6.49200172 91.5200034,6.99199672 91.7760047,7.648 C91.9840057,8.16000256 92.1200044,8.7759964 92.1840047,9.496 C92.248005,10.2160036 92.2800047,11.1439943 92.2800047,12.28 C92.2800047,13.6400068 92.2560049,14.8639946 92.2080047,15.952 L91.9440047,19 L85.4400047,19 L85.6080047,14.992 L89.4000047,14.992 C89.4000047,14.1759959 89.3440052,13.0960067 89.2320047,11.752 C89.1840044,11.1279969 89.1000053,10.6640015 88.9800047,10.36 C88.8600041,10.0559985 88.668006,9.84000064 88.4040047,9.712 C88.1400034,9.58399936 87.7440073,9.52 87.2160047,9.52 C86.4640009,9.52 85.5360102,9.56799952 84.4320047,9.664 C84.3360042,10.5920046 84.252005,11.4759958 84.1800047,12.316 C84.1080043,13.1560042 84.040005,13.879997 83.9760047,14.488 L83.5920047,18.736 C82.6800001,18.9760012 81.8640083,19.1199998 81.1440047,19.168 L80.0160047,19.168 L79.9920047,18.088 Z M82.9440047,21.352 L84.6720047,20.344 L85.6320047,21.952 L83.9280047,22.96 L82.9440047,21.352 Z M86.1600047,21.352 L87.8880047,20.344 L88.8480047,21.952 L87.1440047,22.96 L86.1600047,21.352 Z M72.7360053,5.656 C73.5680095,5.9760016 74.1440037,6.37199764 74.4640053,6.844 C74.7840069,7.31600236 74.9440053,7.97599576 74.9440053,8.824 C74.9440053,9.60800392 74.7600072,10.8479915 74.3920053,12.544 C74.0240035,14.2400085 73.6560072,15.5279956 73.2880053,16.408 C72.4880013,17.1280036 71.2160141,17.891996 69.4720053,18.7 C67.7279966,19.508004 65.8960149,20.1759974 63.9760053,20.704 L63.0400053,20.704 L63.0400053,16.888 C64.5280128,16.4559978 65.7360007,16.0640018 66.6640053,15.712 L65.1280053,10.528 C65.0160048,10.1439981 64.896006,9.87600076 64.7680053,9.724 C64.6400047,9.57199924 64.3200079,9.34400152 63.8080053,9.04 L63.0880053,8.584 C63.4720073,7.383994 63.9120029,6.28800496 64.4080053,5.296 L65.0800053,5.128 C65.5440077,5.32000096 65.9040041,5.48799928 66.1600053,5.632 C66.8800089,5.98400176 67.3960038,6.3999976 67.7080053,6.88 C68.0200069,7.3600024 68.2720044,8.10399496 68.4640053,9.112 C68.6720064,10.1680053 69.0000031,12.0239867 69.4480053,14.68 C70.3440098,14.2959981 70.9440038,13.808003 71.2480053,13.216 C71.5520069,12.623997 71.7200052,11.7440058 71.7520053,10.576 C71.7520053,10.175998 71.7160057,9.90800068 71.6440053,9.772 C71.572005,9.63599932 71.3920068,9.49600072 71.1040053,9.352 L69.7120053,8.656 C70.1920077,7.24799296 70.6240034,6.09600448 71.0080053,5.2 L71.5360053,5.2 C72.0160077,5.3600008 72.4160037,5.51199928 72.7360053,5.656 Z M67.3360053,21.352 L69.0640053,20.344 L70.0240053,21.952 L68.3200053,22.96 L67.3360053,21.352 Z M70.5520053,21.352 L72.2800053,20.344 L73.2400053,21.952 L71.5360053,22.96 L70.5520053,21.352 Z M47.792006,14.992 L54.296006,14.992 L54.296006,13.312 C54.296006,12.8799978 54.2880061,12.4720019 54.272006,12.088 C54.2400058,11.5119971 54.1880064,11.0720015 54.116006,10.768 C54.0440056,10.4639985 53.8920072,10.2200009 53.660006,10.036 C53.4280048,9.85199908 53.0640085,9.76 52.568006,9.76 L49.664006,9.76 C49.4080047,9.76 48.8400104,9.62400136 47.960006,9.352 C48.0720066,7.87999264 48.2880044,6.48800656 48.608006,5.176 L50.240006,4.888 L50.672006,5.368 C50.8160067,5.54400088 50.9480054,5.6519998 51.068006,5.692 C51.1880066,5.7320002 51.4080044,5.752 51.728006,5.752 L53.360006,5.752 C54.4160113,5.752 55.2280032,5.90399848 55.796006,6.208 C56.3640088,6.51200152 56.7680048,7.01599648 57.008006,7.72 C57.2480072,8.42400352 57.368006,9.43199344 57.368006,10.744 C57.368006,11.752005 57.3040066,13.1679909 57.176006,14.992 L58.856006,14.992 L58.640006,19 L47.576006,19 L47.792006,14.992 Z M50.000006,21.352 L51.728006,20.344 L52.688006,21.952 L50.984006,22.96 L50.000006,21.352 Z M53.216006,21.352 L54.944006,20.344 L55.904006,21.952 L54.200006,22.96 L53.216006,21.352 Z M51.632006,24.232 L53.360006,23.224 L54.320006,24.832 L52.616006,25.84 L51.632006,24.232 Z M39.2880067,19.288 C39.2880067,18.5199962 39.2800068,17.8640027 39.2640067,17.32 C39.2640067,14.6479866 39.2400069,12.8000051 39.1920067,11.776 C39.1760066,10.9919961 39.0480079,10.4600014 38.8080067,10.18 C38.5680055,9.8999986 38.1440097,9.76 37.5360067,9.76 L34.1520067,9.76 C33.8960054,9.76 33.3280111,9.62400136 32.4480067,9.352 C32.5600072,7.87999264 32.7760051,6.48800656 33.0960067,5.176 L34.7280067,4.888 L35.1600067,5.368 C35.3040074,5.54400088 35.4360061,5.6519998 35.5560067,5.692 C35.6760073,5.7320002 35.8960051,5.752 36.2160067,5.752 L38.2800067,5.752 C39.3840122,5.752 40.2360037,5.89999852 40.8360067,6.196 C41.4360097,6.49200148 41.8600054,6.9999964 42.1080067,7.72 C42.3560079,8.4400036 42.4880066,9.46399336 42.5040067,10.792 C42.5040067,11.9280057 42.472007,13.2799922 42.4080067,14.848 C42.3440064,16.4160078 42.2640072,17.7359946 42.1680067,18.808 L40.3200067,19.288 L39.2880067,19.288 Z M4.88800734,10.744 L26.0560073,10.744 L26.0560073,13.24 L4.88800734,13.24 L4.88800734,10.744 Z" id="—מֵעַל-וּמֵעֵבֶר—"></path>
            </g>
        </g>
    </g>
</svg>